<svg width="60" height="56" viewBox="0 0 60 56" fill="none" xmlns="http://www.w3.org/2000/svg">
<path d="M2 17.4341C2 19.7538 2.12626 21.5156 2.42673 22.8676C2.72342 24.2026 3.16965 25.0444 3.74672 25.6214C4.32379 26.1985 5.1656 26.6447 6.50058 26.9414C7.8526 27.2419 9.61435 27.3682 11.9341 27.3682C14.2539 27.3682 16.0156 27.2419 17.3676 26.9414C18.7026 26.6447 19.5444 26.1985 20.1215 25.6214C20.6986 25.0444 21.1448 24.2026 21.4415 22.8676C21.742 21.5156 21.8682 19.7538 21.8682 17.4341C21.8682 15.1143 21.742 13.3525 21.4415 12.0005C21.1448 10.6655 20.6986 9.82373 20.1215 9.24667C19.5444 8.6696 18.7026 8.22337 17.3676 7.92668C16.0156 7.6262 14.2539 7.49995 11.9341 7.49995C9.61435 7.49995 7.8526 7.6262 6.50058 7.92668C5.1656 8.22337 4.32379 8.6696 3.74672 9.24667C3.16965 9.82373 2.72342 10.6655 2.42673 12.0005C2.12626 13.3525 2 15.1143 2 17.4341Z" stroke="white" stroke-width="3" stroke-linecap="round" stroke-linejoin="round"/>
<path d="M2 44.5659C2 46.8857 2.12626 48.6474 2.42673 49.9994C2.72342 51.3344 3.16965 52.1762 3.74672 52.7533C4.32379 53.3304 5.1656 53.7766 6.50058 54.0733C7.8526 54.3737 9.61435 54.5 11.9341 54.5C14.2539 54.5 16.0156 54.3737 17.3676 54.0733C18.7026 53.7766 19.5444 53.3304 20.1215 52.7533C20.6986 52.1762 21.1448 51.3344 21.4415 49.9994C21.742 48.6474 21.8682 46.8857 21.8682 44.5659C21.8682 42.2461 21.742 40.4844 21.4415 39.1324C21.1448 37.7974 20.6986 36.9556 20.1215 36.3785C19.5444 35.8014 18.7026 35.3552 17.3676 35.0585C16.0156 34.758 14.2539 34.6318 11.9341 34.6318C9.61435 34.6318 7.8526 34.758 6.50058 35.0585C5.1656 35.3552 4.32379 35.8014 3.74672 36.3785C3.16965 36.9556 2.72342 37.7974 2.42673 39.1324C2.12626 40.4844 2 42.2461 2 44.5659Z" stroke="white" stroke-width="3" stroke-linecap="round" stroke-linejoin="round"/>
<path d="M29.1318 44.5659C29.1318 46.8857 29.2581 48.6474 29.5586 49.9994C29.8553 51.3344 30.3015 52.1762 30.8786 52.7533C31.4556 53.3304 32.2974 53.7766 33.6324 54.0733C34.9844 54.3737 36.7462 54.5 39.0659 54.5C41.3857 54.5 43.1475 54.3737 44.4995 54.0733C45.8345 53.7766 46.6763 53.3304 47.2533 52.7533C47.8304 52.1762 48.2766 51.3344 48.5733 49.9994C48.8738 48.6474 49.0001 46.8857 49.0001 44.5659C49.0001 42.2461 48.8738 40.4844 48.5733 39.1324C48.2766 37.7974 47.8304 36.9556 47.2533 36.3785C46.6763 35.8014 45.8345 35.3552 44.4995 35.0585C43.1475 34.758 41.3857 34.6318 39.0659 34.6318C36.7462 34.6318 34.9844 34.758 33.6324 35.0585C32.2974 35.3552 31.4556 35.8014 30.8786 36.3785C30.3015 36.9556 29.8553 37.7974 29.5586 39.1324C29.2581 40.4844 29.1318 42.2461 29.1318 44.5659Z" stroke="white" stroke-width="3" stroke-linecap="round" stroke-linejoin="round"/>
<path d="M50 20.7777C50 23.1096 48.1096 24.9999 45.7778 24.9999H35.2222C32.8904 24.9999 31 23.1096 31 20.7777V10.2222" stroke="#6C63FF" stroke-width="3" stroke-linecap="round" stroke-linejoin="round"/>
</svg>
