<svg width="73" height="73" viewBox="0 0 73 73" fill="none" xmlns="http://www.w3.org/2000/svg">
<path d="M65.8441 7.57367C65.8199 7.45816 65.7627 7.35189 65.6793 7.26736C65.596 7.18283 65.4899 7.12356 65.3736 7.09652C57.6202 5.22455 39.7095 11.8947 29.9957 21.477C28.2645 23.172 26.6859 25.0124 25.2778 26.9775C22.2836 26.7101 19.2895 26.9353 16.7402 28.0331C9.54144 31.1578 7.44696 39.3185 6.86239 42.8217C6.83072 43.0137 6.84425 43.2103 6.90193 43.3962C6.95961 43.5822 7.05989 43.7526 7.19501 43.8941C7.33012 44.0357 7.49643 44.1446 7.68106 44.2125C7.86569 44.2804 8.06367 44.3054 8.25966 44.2855L19.8185 43.0329C19.8265 43.8935 19.8788 44.7532 19.9753 45.6086C20.0356 46.1998 20.3028 46.7518 20.731 47.1695L25.2065 51.5877C25.63 52.0106 26.1897 52.2744 26.7891 52.3336C27.6504 52.4285 28.516 52.4801 29.3826 52.4885L28.1151 63.8892C28.0953 64.0825 28.1208 64.2776 28.1896 64.4595C28.2584 64.6415 28.3686 64.8054 28.5118 64.9386C28.655 65.0718 28.8273 65.1707 29.0153 65.2277C29.2034 65.2846 29.4023 65.2981 29.5965 65.2672C33.1467 64.7042 41.4305 62.6365 44.5772 55.5315C45.6893 53.0121 45.9174 50.0718 45.6608 47.1301C47.6572 45.7413 49.5269 44.1829 51.2484 42.4727C60.9979 32.9017 67.7119 15.6091 65.8441 7.57367ZM42.5825 30.074C41.7309 29.2335 41.1509 28.1626 40.9159 26.9968C40.6809 25.8309 40.8014 24.6224 41.2621 23.5241C41.7229 22.4259 42.5032 21.4872 43.5044 20.8267C44.5056 20.1663 45.6828 19.8137 46.8869 19.8137C48.0911 19.8137 49.2682 20.1663 50.2694 20.8267C51.2706 21.4872 52.051 22.4259 52.5117 23.5241C52.9725 24.6224 53.093 25.8309 52.8579 26.9968C52.6229 28.1626 52.0429 29.2335 51.1914 30.074C50.6265 30.6328 49.9556 31.0761 49.217 31.3786C48.4784 31.681 47.6866 31.8367 46.8869 31.8367C46.0873 31.8367 45.2955 31.681 44.5569 31.3786C43.8183 31.0761 43.1473 30.6328 42.5825 30.074Z" stroke="white" stroke-width="4.01099" stroke-linecap="round" stroke-linejoin="round"/>
<path d="M42.5825 30.074C41.7309 29.2335 41.1509 28.1626 40.9159 26.9968C40.6809 25.8309 40.8014 24.6224 41.2621 23.5241C41.7229 22.4259 42.5032 21.4871 43.5044 20.8267C44.5056 20.1662 45.6827 19.8137 46.8869 19.8137C48.0911 19.8137 49.2682 20.1662 50.2694 20.8267C51.2706 21.4871 52.051 22.4259 52.5117 23.5241C52.9725 24.6224 53.0929 25.8309 52.8579 26.9968C52.6229 28.1626 52.0429 29.2335 51.1914 30.074C50.6265 30.6328 49.9556 31.0761 49.217 31.3785C48.4784 31.681 47.6866 31.8367 46.8869 31.8367C46.0873 31.8367 45.2955 31.681 44.5569 31.3785C43.8182 31.0761 43.1473 30.6328 42.5825 30.074Z" stroke="#6C63FF" stroke-width="4.01099" stroke-linecap="round" stroke-linejoin="round"/>
<path d="M15.6323 49.5439C14.2109 49.7162 12.8886 50.3523 11.8753 51.3512C9.36311 53.8396 9.125 63.056 9.125 63.056C9.125 63.056 18.4667 62.8209 20.9804 60.3381C21.9963 59.3394 22.6418 58.0318 22.8125 56.6265" stroke="white" stroke-width="4.01099" stroke-linecap="round" stroke-linejoin="round"/>
</svg>
