<svg width="30" height="42" viewBox="0 0 30 42" fill="none" xmlns="http://www.w3.org/2000/svg">
<path d="M5.19188 1.08118L7.43355 0.364513C9.53563 -0.306321 11.7815 0.779096 12.6815 2.89993L14.4731 7.12493C15.2523 8.96451 14.819 11.1291 13.4023 12.4749L9.45438 16.2208C9.69813 18.4624 10.4523 20.6687 11.7148 22.8395C12.9137 24.9398 14.5218 26.7782 16.444 28.2458L21.1856 26.6624C22.9815 26.0645 24.9398 26.7541 26.0398 28.3728L28.6085 32.1437C29.8898 34.027 29.6585 36.6228 28.069 38.2187L26.3669 39.9291C24.671 41.6312 22.2481 42.2499 20.0085 41.5499C14.7169 39.8999 9.85646 35.002 5.41896 26.8562C0.975213 18.6978 -0.593538 11.7728 0.714796 6.08951C1.2648 3.69785 2.96688 1.7916 5.19188 1.08118Z" fill="white"/>
</svg>
