<svg width="442" height="639" viewBox="0 0 442 639" fill="none" xmlns="http://www.w3.org/2000/svg">
<path fill-rule="evenodd" clip-rule="evenodd" d="M127.582 303.312C128.487 302.802 129.378 302.277 130.256 301.74C137.738 297.158 158.825 302.871 166.466 307.182V307.182L250.947 354.846V354.846C256.95 358.233 272.426 375.76 271.675 382.612C270.742 391.135 271.089 399.838 272.802 408.421C274.408 416.469 265.095 427.989 257.948 432.022V432.022L173.466 479.686V479.686C165.31 484.287 150.744 487.918 142.917 482.777C117.168 465.863 83.0959 463.586 54.4161 479.768C13.5303 502.835 -0.914091 554.68 22.1535 595.565C45.2212 636.451 97.0656 650.895 137.951 627.828C166.679 611.62 182.353 581.205 181.132 550.366C180.763 541.024 191.367 530.44 199.51 525.846V525.846L283.991 478.182V478.182C293.184 472.995 312.49 465.482 322.166 469.699C345.786 479.992 373.783 479.464 397.952 465.828C438.837 442.76 453.282 390.916 430.214 350.03C407.146 309.144 355.302 294.7 314.416 317.768V317.768C308.251 321.246 284.854 313.97 279.024 309.956C278.372 309.507 277.694 309.083 276.991 308.686L192.509 261.022V261.022C185.07 256.825 170.309 241.9 170.728 233.369C170.893 230 170.858 226.613 170.619 223.226C170.067 215.428 176.699 207.858 183.508 204.016V204.016L267.989 156.352V156.352C274.797 152.511 284.708 150.75 291.098 155.254C317.093 173.579 352.356 176.495 381.898 159.828C422.783 136.76 437.228 84.9158 414.16 44.0301C391.093 3.14435 339.248 -11.3001 298.362 11.7676C269.175 28.2352 253.462 59.3686 255.253 90.711C255.706 98.6468 248.869 106.286 241.946 110.192V110.192L157.464 157.856V157.856C150.541 161.762 140.467 163.665 133.909 159.173C108.008 141.434 73.235 138.784 44.0472 155.252C3.16146 178.319 -11.283 230.164 11.7847 271.049C34.8523 311.935 86.6967 326.38 127.582 303.312ZM142.426 197.342C160.066 228.607 149.02 268.253 117.755 285.893C86.4891 303.533 46.8434 292.487 29.2034 261.222C11.5635 229.956 22.6092 190.31 53.8748 172.671C85.1403 155.031 124.786 166.076 142.426 197.342ZM384.877 449.162C416.143 431.523 427.189 391.877 409.549 360.611C391.909 329.346 352.263 318.3 320.997 335.94C289.732 353.58 278.686 393.226 296.326 424.491C313.966 455.757 353.612 466.802 384.877 449.162ZM130.877 610.162C162.143 592.522 173.189 552.877 155.549 521.611C137.909 490.345 98.2631 479.3 66.9975 496.94C35.732 514.58 24.6863 554.225 42.3262 585.491C59.9662 616.757 99.6119 627.802 130.877 610.162ZM372.07 142.409C403.336 124.769 414.381 85.1233 396.741 53.8577C379.101 22.5922 339.456 11.5464 308.19 29.1864C276.925 46.8263 265.879 86.4721 283.519 117.738C301.159 149.003 340.805 160.049 372.07 142.409Z" fill="url(#paint0_linear_115_1840)"/>
<defs>
<linearGradient id="paint0_linear_115_1840" x1="432.915" y1="48.7797" x2="-531.219" y2="592.742" gradientUnits="userSpaceOnUse">
<stop stop-color="#FF8A00"/>
<stop offset="0.28125" stop-color="#5236FF"/>
<stop offset="0.609375" stop-color="#14E0D4"/>
<stop offset="0.932292" stop-color="#CB01FE"/>
</linearGradient>
</defs>
</svg>
