<svg width="812" height="75" viewBox="0 0 812 75" fill="none" xmlns="http://www.w3.org/2000/svg">
<path d="M0.238232 0.491025H17.6672V73H0.238232V0.491025ZM33.2972 0.491025H50.9496L86.031 49.9848V0.491025H101.561V73H83.9083L48.8269 22.7241V73H33.2972V0.491025ZM117.199 0.491025H173.62V12.8924H134.628V30.6565H169.933V43.0579H134.628V73H117.199V0.491025ZM185.39 0.491025H218.014C227.697 0.491025 234.698 1.68275 239.018 4.0662C243.338 6.37517 245.498 10.2855 245.498 15.7972V28.5338C245.498 32.7793 243.971 36.131 240.917 38.589C237.938 40.9724 233.953 42.4993 228.963 43.1697L249.967 73H229.857L210.864 44.5103H202.819V73H185.39V0.491025ZM217.79 33.0028C221.887 33.0028 224.68 32.4814 226.17 31.4386C227.659 30.3214 228.404 28.1986 228.404 25.0703V19.931C228.404 17.2496 227.585 15.4248 225.946 14.4565C224.382 13.4138 221.664 12.8924 217.79 12.8924H202.819V33.0028H217.79ZM279.235 0.491025H300.463L326.606 73H308.954L302.474 53.8952H275.995L269.627 73H252.421L279.235 0.491025ZM298.675 42.2759L289.514 15.0152H289.067L279.906 42.2759H298.675ZM351.406 12.8924H329.061V0.491025H391.068V12.8924H368.835V73H351.406V12.8924ZM432.263 74.1172C411.334 74.1172 400.869 67.1159 400.869 53.1131V0.491025H418.298V53.1131C418.298 56.3903 419.341 58.6621 421.426 59.9283C423.586 61.12 427.273 61.7159 432.487 61.7159C437.626 61.7159 441.201 61.12 443.212 59.9283C445.298 58.6621 446.341 56.3903 446.341 53.1131V0.491025H463.769V53.1131C463.769 67.1159 453.267 74.1172 432.263 74.1172ZM475.86 62.3862L513.623 12.8924H476.977V0.491025H535.074V10.9931L497.311 60.4869H535.744V73H475.86V62.3862ZM547.621 0.491025H565.05V73H547.621V0.491025ZM580.68 0.491025H598.109V60.5986H633.749V73H580.68V0.491025ZM645.489 0.491025H670.292L688.167 52.331L705.82 0.491025H729.17V73H713.417V19.3724H713.082L694.759 73H680.794L661.912 19.3724H661.465V73H645.489V0.491025ZM763.991 0.491025H785.219L811.363 73H793.71L787.23 53.8952H760.751L754.383 73H737.178L763.991 0.491025ZM783.431 42.2759L774.27 15.0152H773.823L764.662 42.2759H783.431Z" fill="white" fill-opacity="0.04"/>
</svg>
