<svg width="749" height="308" viewBox="0 0 749 308" fill="none" xmlns="http://www.w3.org/2000/svg">
<path d="M203.553 10.5V50V270H360.963" stroke="white" stroke-opacity="0.2" stroke-width="2" stroke-linecap="round"/>
<path d="M367.622 269.5C367.622 272.955 364.859 275.75 361.457 275.75C358.055 275.75 355.292 272.955 355.292 269.5C355.292 266.045 358.055 263.25 361.457 263.25C364.859 263.25 367.622 266.045 367.622 269.5Z" stroke="white" stroke-width="0.5"/>
<ellipse cx="361.457" cy="269.5" rx="3.45414" ry="3.5" fill="white"/>
<path d="M209.718 7.5C209.718 10.9549 206.955 13.75 203.553 13.75C200.152 13.75 197.389 10.9549 197.389 7.5C197.389 4.0451 200.152 1.25 203.553 1.25C206.955 1.25 209.718 4.0451 209.718 7.5Z" stroke="white" stroke-width="0.5"/>
<ellipse cx="203.553" cy="7.5" rx="3.45414" ry="3.5" fill="#6C63FF"/>
<path d="M-163.079 9V302H391.064" stroke="white" stroke-opacity="0.2" stroke-width="2" stroke-linecap="round"/>
<path d="M397.229 301.5C397.229 304.955 394.465 307.75 391.064 307.75C387.662 307.75 384.899 304.955 384.899 301.5C384.899 298.045 387.662 295.25 391.064 295.25C394.465 295.25 397.229 298.045 397.229 301.5Z" stroke="white" stroke-width="0.5"/>
<ellipse cx="391.064" cy="301.5" rx="3.45414" ry="3.5" fill="white"/>
<path d="M421.658 269.5V119H741.906V8" stroke="white" stroke-opacity="0.2" stroke-width="2" stroke-linecap="round"/>
<path d="M427.822 269.5C427.822 272.955 425.059 275.75 421.658 275.75C418.256 275.75 415.493 272.955 415.493 269.5C415.493 266.045 418.256 263.25 421.658 263.25C425.059 263.25 427.822 266.045 427.822 269.5Z" stroke="white" stroke-width="0.5"/>
<ellipse cx="421.658" cy="269.5" rx="3.45414" ry="3.5" fill="white"/>
<path d="M748.564 7.5C748.564 10.9549 745.801 13.75 742.399 13.75C738.997 13.75 736.234 10.9549 736.234 7.5C736.234 4.0451 738.997 1.25 742.399 1.25C745.801 1.25 748.564 4.0451 748.564 7.5Z" stroke="white" stroke-width="0.5"/>
<ellipse cx="742.399" cy="7.5" rx="3.45414" ry="3.5" fill="#955BA5"/>
<path d="M390.57 236L390.57 83.4991L445.342 83.499L480.87 83.499L480.87 9.49886" stroke="white" stroke-opacity="0.2" stroke-width="2" stroke-linecap="round"/>
<path d="M384.899 237.5C384.899 234.045 387.662 231.25 391.064 231.25C394.465 231.25 397.229 234.045 397.229 237.5C397.229 240.955 394.465 243.75 391.064 243.75C387.662 243.75 384.899 240.955 384.899 237.5Z" stroke="white" stroke-width="0.5"/>
<ellipse cx="391.064" cy="237.5" rx="3.45414" ry="3.5" transform="rotate(180 391.064 237.5)" fill="white"/>
<path d="M474.707 7.49951C474.707 4.04461 477.47 1.24951 480.871 1.24951C484.273 1.24951 487.036 4.04461 487.036 7.49951C487.036 10.9544 484.273 13.7495 480.871 13.7495C477.47 13.7495 474.707 10.9544 474.707 7.49951Z" stroke="white" stroke-width="0.5"/>
<ellipse cx="480.871" cy="7.49951" rx="3.45414" ry="3.5" transform="rotate(180 480.871 7.49951)" fill="#F25A59"/>
</svg>
