<svg width="18" height="24" viewBox="0 0 18 24" fill="none" xmlns="http://www.w3.org/2000/svg">
<path d="M3.32607 0.526816L4.61727 0.114016C5.82807 -0.272384 7.12167 0.352816 7.64007 1.57442L8.67207 4.00802C9.12087 5.06762 8.87127 6.31442 8.05527 7.08962L5.78127 9.24722C5.92167 10.5384 6.35607 11.8092 7.08327 13.0596C7.77383 14.2694 8.70011 15.3283 9.80727 16.1736L12.5385 15.2616C13.5729 14.9172 14.7009 15.3144 15.3345 16.2468L16.8141 18.4188C17.5521 19.5036 17.4189 20.9988 16.5033 21.918L15.5229 22.9032C14.5461 23.8836 13.1505 24.24 11.8605 23.8368C8.81247 22.8864 6.01287 20.0652 3.45687 15.3732C0.897269 10.674 -0.00633079 6.68522 0.747269 3.41162C1.06407 2.03402 2.04447 0.936016 3.32607 0.526816Z" fill="white"/>
</svg>
